<?xml version="1.0" encoding="UTF-8"?>
<!DOCTYPE svg PUBLIC "-//W3C//DTD SVG 1.1//EN" "http://www.w3.org/Graphics/SVG/1.1/DTD/svg11.dtd">
<!-- Creator: CorelDRAW 2019 (64-Bit) -->
<svg xmlns="http://www.w3.org/2000/svg" xml:space="preserve" width="5.5cm" height="2cm" version="1.1" shape-rendering="geometricPrecision" text-rendering="geometricPrecision" image-rendering="optimizeQuality" fill-rule="evenodd" clip-rule="evenodd"
viewBox="0 0 5500 2000"
 xmlns:xlink="http://www.w3.org/1999/xlink">
 <g id="Layer_x0020_1">
  <metadata id="CorelCorpID_0Corel-Layer"/>
  <path fill="#FEFEFE" d="M813 1309c0,86 -16,165 -47,238 -31,73 -77,139 -139,199 -62,59 -131,104 -208,134 -77,30 -161,45 -253,45l-35 0 0 -328 35 0c48,0 92,-7 130,-21 38,-14 72,-35 102,-63 30,-28 52,-58 66,-92 15,-33 22,-70 22,-111l0 -742 326 0 0 742zm830 69l-135 0 0 -1c-152,-7 -274,-62 -366,-164 -48,-53 -84,-115 -108,-184 -24,-69 -36,-146 -36,-231l0 -714 329 0 0 715c0,87 18,150 54,191 35,40 89,60 163,60l1064 0 0 -482 329 0 0 810 -1293 0zm1160 449l-128 0c-22,0 -43,-4 -63,-12 -20,-8 -37,-20 -53,-36 -16,-16 -28,-34 -37,-53 -8,-20 -13,-41 -13,-63 0,-22 4,-44 12,-63l0 0c8,-19 20,-37 37,-53 16,-16 34,-28 53,-36 20,-8 41,-13 63,-13 22,0 43,4 63,13 19,8 37,20 53,37 16,16 28,34 36,53 8,20 12,41 12,63l0 164 -35 0zm1261 -449l-134 0 0 -1c-43,-3 -85,-11 -126,-25 -32,-10 -62,-24 -92,-41 0,85 -16,163 -47,236 -31,73 -77,139 -139,199 -62,59 -131,104 -208,134 -77,30 -161,45 -253,45l-35 0 0 -328 35 0c48,0 92,-7 130,-21 38,-14 72,-35 102,-63l0 0c30,-28 52,-58 66,-92 15,-33 22,-70 22,-111l0 -742 326 0 0 196c0,42 6,81 18,115 12,34 30,64 53,91l0 0c23,26 50,46 80,59 30,13 64,20 102,20l136 0 0 0 929 0 0 -482 329 0 0 810 -1293 0zm-423 -931l-128 0c-22,0 -43,-4 -63,-12 -20,-8 -37,-20 -53,-36 -16,-16 -28,-34 -37,-53l0 0c-8,-20 -12,-41 -12,-63 0,-22 4,-43 12,-63l0 0c8,-19 20,-37 36,-53 16,-16 34,-28 53,-36l0 0c20,-8 41,-13 63,-13 22,0 43,4 63,13 19,8 37,20 53,37 16,16 28,34 36,53 8,20 12,40 12,63l0 164 -35 0zm1693 -41l-130 0c-22,0 -43,-4 -63,-13 -19,-8 -37,-20 -53,-37 -4,-4 -8,-9 -12,-13l0 62 -164 0c-22,0 -44,-4 -64,-13 -20,-8 -37,-20 -53,-37 -16,-16 -27,-34 -36,-53 -8,-20 -12,-41 -12,-63 0,-22 4,-43 12,-63 8,-20 20,-37 36,-53 16,-16 33,-28 53,-36 20,-8 41,-12 63,-12 22,0 43,4 62,12 19,8 37,20 53,35 13,12 23,26 31,41 8,-15 18,-28 30,-40 16,-16 33,-28 53,-36 20,-8 40,-12 62,-12 23,0 44,4 63,12 20,8 37,20 54,35 16,16 28,33 36,53 8,20 12,41 12,63l0 165 -35 0z"/>
 </g>
</svg>
